<svg width="181" height="144" viewBox="0 0 181 144" fill="none" xmlns="http://www.w3.org/2000/svg">
<path d="M116.64 6.10352e-05H66.6951C29.5528 6.10352e-05 0 32.9937 0 70.6681V71.277C0 108.609 28.4796 143.201 66.6951 143.201H116.64C153.782 143.201 180.613 108.114 180.613 71.277V70.6681C180.613 33.4884 153.13 6.10352e-05 116.64 6.10352e-05ZM152.747 71.277C152.747 97.1925 136.648 114.431 116.065 114.431H68.9565C46.2266 114.431 29.8595 95.7464 29.8595 70.6681V70.0212C29.8595 44.4483 45.4599 27.7802 67.6916 27.7802H114.8C137.836 27.7802 152.747 46.4271 152.747 70.6681V71.277Z" fill="#121218"/>
<path d="M71.6252 57.2011H61.5826C54.3382 57.2011 52 58.3428 52 66.2582V75.3914C52 83.8015 53.0733 86.3512 60.8543 86.3512H71.3186C79.4063 86.3512 80.9395 83.8015 80.9395 75.3914V66.2582C80.9395 59.0658 78.6397 57.2011 71.6252 57.2011Z" fill="#121218"/>
<path d="M119.504 57.201H109.462C102.217 57.201 99.8789 58.3427 99.8789 66.2581V75.3913C99.8789 83.8015 100.952 86.3512 108.733 86.3512H119.197C127.285 86.3512 128.818 83.8015 128.818 75.3913V66.2581C128.818 59.0657 126.519 57.201 119.504 57.201Z" fill="#121218"/>
</svg>
