<svg width="855" height="180" viewBox="0 0 855 180" fill="none" xmlns="http://www.w3.org/2000/svg">
<g clip-path="url(#clip0_546_708)">
<path d="M194.67 141.479C202.545 141.479 204.48 143.369 204.48 151.064V161.864C204.48 171.719 202.77 173.699 194.31 173.699H182.025C173.655 173.699 172.755 171.314 172.755 161.864V151.064C172.755 142.424 174.825 141.479 182.88 141.479H194.67ZM194.67 140.354H182.88C174.375 140.354 171.63 141.704 171.63 151.064V161.864C171.63 171.809 172.89 174.824 182.025 174.824H194.31C203.805 174.824 205.605 171.809 205.605 161.864V151.064C205.605 142.559 202.905 140.354 194.67 140.354Z" fill="#2DAA7C"/>
<path d="M260.956 141.705C268.831 141.705 270.766 143.595 270.766 151.29V162.09C270.766 171.945 269.056 173.925 260.596 173.925H248.311C239.941 173.925 239.041 171.54 239.041 162.09V151.29C239.041 142.65 241.111 141.705 249.166 141.705H260.956ZM260.956 140.58H249.166C240.661 140.58 237.916 141.93 237.916 151.29V162.09C237.916 172.035 239.176 175.05 248.311 175.05H260.596C270.091 175.05 271.891 172.035 271.891 162.09V151.29C271.891 142.785 269.191 140.58 260.956 140.58Z" fill="#2DAA7C"/>
<path d="M842.986 4.49988H692.506C687.646 4.49988 684.541 8.81988 684.541 13.9949V165.33C684.541 170.46 687.826 174.78 691.786 174.78H710.686C715.006 174.78 717.571 169.47 717.571 165.69V48.6899C717.571 43.2899 720.586 39.7799 724.726 39.7799H842.491C846.901 39.7799 849.781 35.0549 849.781 29.6099V14.3999C849.781 9.17988 847.171 4.49988 842.986 4.49988Z" fill="white" fill-opacity="0.04" stroke="#9376E5" stroke-width="1.125" stroke-miterlimit="10"/>
<path d="M809.055 72.4498L760.275 72.6298C755.19 72.6298 751.68 77.2198 751.68 81.4948V98.0098C751.68 103.095 755.64 107.91 760.05 107.91H807.21C812.07 107.91 815.805 103.86 815.805 98.8648V81.4048C815.805 76.7698 812.475 72.4498 809.055 72.4498Z" fill="white" fill-opacity="0.04" stroke="#9376E5" stroke-width="1.125" stroke-miterlimit="10"/>
<path d="M575.371 5.4447H516.736C473.131 5.4447 438.436 44.4597 438.436 89.0097V89.7297C438.436 133.875 471.871 174.78 516.736 174.78H575.371C618.976 174.78 650.476 133.29 650.476 89.7297V89.0097C650.476 45.0447 618.211 5.4447 575.371 5.4447ZM617.761 89.7297C617.761 120.375 598.861 140.76 574.696 140.76H519.391C492.706 140.76 473.491 118.665 473.491 89.0097V88.2447C473.491 58.0047 491.806 38.2947 517.906 38.2947H573.211C600.256 38.2947 617.761 60.3447 617.761 89.0097V89.7297Z" fill="white" fill-opacity="0.04" stroke="#9376E5" stroke-width="1.125" stroke-miterlimit="10"/>
<path d="M327.915 5.4447H212.715C207.72 5.4447 205.604 10.8897 205.604 14.4897V163.8C205.604 168.705 209.789 174.78 214.469 174.78H229.814C235.709 174.78 237.779 168.795 237.779 164.97V49.8597C237.779 44.4147 241.604 40.5447 245.744 40.5447H328.274C354.959 40.5447 374.535 66.3747 374.535 88.8297V89.1897C374.535 111.285 357.794 140.355 330.074 140.355H280.529C274.41 140.355 272.069 145.98 272.069 151.065V164.385C272.069 169.47 276.029 174.78 280.169 174.78H328.095C372.42 174.78 404.684 133.47 404.684 89.1897V88.2447C404.684 43.6947 370.71 5.4447 327.915 5.4447Z" fill="white" fill-opacity="0.04" stroke="#9376E5" stroke-width="1.125" stroke-miterlimit="10"/>
<path d="M59.445 5.03992H13.995C4.86 5.03992 4.5 6.38992 4.5 20.8349V26.6399C4.5 37.7099 5.76 40.1399 16.695 40.1399H27.045C37.035 40.1399 37.035 44.4599 37.035 53.1899V61.6949C37.035 72.9449 37.935 74.2949 47.745 74.2949H59.445C70.56 74.2949 69.48 70.3799 69.48 54.7199V21.7799C69.48 8.63992 68.76 5.03992 59.445 5.03992Z" fill="white" fill-opacity="0.04" stroke="#9376E5" stroke-width="1.125" stroke-miterlimit="10"/>
<path d="M163.261 5.03992H115.651C106.696 5.03992 102.916 5.44492 102.916 17.4599V59.9849C102.916 72.7649 103.996 73.8899 113.446 73.8899H126.721C136.261 73.8899 137.881 72.7649 137.881 61.6949V52.2449C137.881 42.3899 138.961 39.9599 148.186 39.9599H162.541C173.836 39.9599 171.496 36.1799 171.856 26.1449V17.6399C171.856 8.27992 171.496 5.03992 163.261 5.03992Z" fill="white" fill-opacity="0.04" stroke="#9376E5" stroke-width="1.125" stroke-miterlimit="10"/>
<path d="M59.445 105.165H47.205C38.07 105.165 36.99 106.695 36.99 119.295V124.92C36.99 134.28 35.91 137.295 27.765 137.295H15.435C5.58 137.295 4.5 138.24 4.5 148.77V161.145C4.5 171.855 5.76 174.24 16.695 174.24H58.005C68.58 174.24 69.3 172.89 69.3 162.09V117.765C69.3 107.82 68.58 105.165 59.445 105.165Z" fill="white" fill-opacity="0.04" stroke="#9376E5" stroke-width="1.125" stroke-miterlimit="10"/>
<path d="M162.721 137.295H151.246C142.291 137.295 139.546 135.945 139.546 126.585V117.405C139.546 108.495 138.106 105.705 129.961 105.705H113.581C106.336 105.705 102.916 106.29 102.916 116.055V158.895C102.916 171.855 103.636 174.42 112.141 174.42H161.461C171.136 174.42 171.496 172.89 171.496 161.64V151.695C171.496 140.445 171.136 137.295 162.721 137.295Z" fill="white" fill-opacity="0.04" stroke="#9376E5" stroke-width="1.125" stroke-miterlimit="10"/>
<path d="M91.979 71.2347H80.189C71.684 71.2347 68.939 72.5847 68.939 81.9447V92.7447C68.939 102.69 70.199 105.705 79.334 105.705H91.619C101.114 105.705 102.914 102.69 102.914 92.7447V81.9447C102.914 73.4397 100.214 71.2347 91.979 71.2347Z" fill="white" fill-opacity="0.04" stroke="#2DAA7C" stroke-width="1.125" stroke-miterlimit="10"/>
<path d="M427.456 73.6649C435.331 73.6649 437.266 75.5549 437.266 83.2499V94.0499C437.266 103.905 435.556 105.885 427.096 105.885H414.811C406.441 105.885 405.541 103.5 405.541 94.0499V83.2499C405.541 74.6099 407.611 73.6649 415.666 73.6649H427.456ZM427.456 72.5399H415.666C407.161 72.5399 404.416 73.8899 404.416 83.2499V94.0499C404.416 103.995 405.676 107.01 414.811 107.01H427.096C436.591 107.01 438.391 103.995 438.391 94.0499V83.2499C438.391 74.7449 435.691 72.5399 427.456 72.5399Z" fill="#2DAA7C"/>
<path d="M673.604 73.6649C681.479 73.6649 683.414 75.5549 683.414 83.2499V94.0499C683.414 103.905 681.704 105.885 673.244 105.885H660.959C652.589 105.885 651.689 103.5 651.689 94.0499V83.2499C651.689 74.6099 653.759 73.6649 661.814 73.6649H673.604ZM673.604 72.5399H661.814C653.309 72.5399 650.564 73.8899 650.564 83.2499V94.0499C650.564 103.995 651.824 107.01 660.959 107.01H673.244C682.739 107.01 684.539 103.995 684.539 94.0499V83.2499C684.539 74.7449 681.839 72.5399 673.604 72.5399Z" fill="#2DAA7C"/>
<path d="M740.656 73.6649C748.531 73.6649 750.466 75.5549 750.466 83.2499V94.0499C750.466 103.905 748.756 105.885 740.296 105.885H728.011C719.641 105.885 718.741 103.5 718.741 94.0499V83.2499C718.741 74.6099 720.811 73.6649 728.866 73.6649H740.656ZM740.656 72.5399H728.866C720.361 72.5399 717.616 73.8899 717.616 83.2499V94.0499C717.616 103.995 718.876 107.01 728.011 107.01H740.296C749.791 107.01 751.591 103.995 751.591 94.0499V83.2499C751.591 74.7449 748.891 72.5399 740.656 72.5399Z" fill="#2DAA7C"/>
<path d="M838.845 73.6649C846.72 73.6649 848.655 75.5549 848.655 83.2499V94.0499C848.655 103.905 846.945 105.885 838.485 105.885H826.2C817.83 105.885 816.93 103.5 816.93 94.0499V83.2499C816.93 74.6099 819 73.6649 827.055 73.6649H838.845ZM838.845 72.5399H827.055C818.55 72.5399 815.805 73.8899 815.805 83.2499V94.0499C815.805 103.995 817.065 107.01 826.2 107.01H838.485C847.98 107.01 849.78 103.995 849.78 94.0499V83.2499C849.78 74.7449 847.08 72.5399 838.845 72.5399Z" fill="#2DAA7C"/>
<path d="M267.39 151.29C267.39 153.775 269.404 155.79 271.89 155.79C274.375 155.79 276.39 153.775 276.39 151.29C276.39 148.805 274.375 146.79 271.89 146.79C269.404 146.79 267.39 148.805 267.39 151.29Z" fill="#9376E5"/>
<path d="M167.13 151.065C167.13 153.55 169.145 155.565 171.63 155.565C174.116 155.565 176.13 153.55 176.13 151.065C176.13 148.579 174.116 146.565 171.63 146.565C169.145 146.565 167.13 148.579 167.13 151.065Z" fill="#9376E5"/>
<path d="M167.13 161.865C167.13 164.35 169.145 166.365 171.63 166.365C174.116 166.365 176.13 164.35 176.13 161.865C176.13 159.379 174.116 157.365 171.63 157.365C169.145 157.365 167.13 159.379 167.13 161.865Z" fill="#9376E5"/>
<path d="M87.4795 71.2347C87.4795 73.72 89.4942 75.7347 91.9795 75.7347C94.4648 75.7347 96.4795 73.72 96.4795 71.2347C96.4795 68.7495 94.4648 66.7347 91.9795 66.7347C89.4942 66.7347 87.4795 68.7495 87.4795 71.2347Z" fill="#9376E5"/>
<path d="M75.689 71.2347C75.689 73.72 77.7037 75.7347 80.189 75.7347C82.6742 75.7347 84.689 73.72 84.689 71.2347C84.689 68.7495 82.6742 66.7347 80.189 66.7347C77.7037 66.7347 75.689 68.7495 75.689 71.2347Z" fill="#9376E5"/>
<path d="M64.439 81.9447C64.439 84.43 66.4537 86.4447 68.939 86.4447C71.4242 86.4447 73.439 84.43 73.439 81.9447C73.439 79.4594 71.4242 77.4447 68.939 77.4447C66.4537 77.4447 64.439 79.4594 64.439 81.9447Z" fill="#9376E5"/>
<path d="M64.439 92.7449C64.439 95.2302 66.4537 97.2449 68.939 97.2449C71.4242 97.2449 73.439 95.2302 73.439 92.7449C73.439 90.2596 71.4242 88.2449 68.939 88.2449C66.4537 88.2449 64.439 90.2596 64.439 92.7449Z" fill="#9376E5"/>
<path d="M74.8345 105.705C74.8345 108.19 76.8492 110.205 79.3345 110.205C81.8198 110.205 83.8345 108.19 83.8345 105.705C83.8345 103.22 81.8198 101.205 79.3345 101.205C76.8492 101.205 74.8345 103.22 74.8345 105.705Z" fill="#9376E5"/>
<path d="M87.1191 105.705C87.1191 108.19 89.1339 110.205 91.6191 110.205C94.1044 110.205 96.1191 108.19 96.1191 105.705C96.1191 103.22 94.1044 101.205 91.6191 101.205C89.1339 101.205 87.1191 103.22 87.1191 105.705Z" fill="#9376E5"/>
<path d="M98.4155 92.7449C98.4155 95.2302 100.43 97.2449 102.916 97.2449C105.401 97.2449 107.416 95.2302 107.416 92.7449C107.416 90.2596 105.401 88.2449 102.916 88.2449C100.43 88.2449 98.4155 90.2596 98.4155 92.7449Z" fill="#9376E5"/>
<path d="M98.4155 81.9447C98.4155 84.43 100.43 86.4447 102.916 86.4447C105.401 86.4447 107.416 84.43 107.416 81.9447C107.416 79.4594 105.401 77.4447 102.916 77.4447C100.43 77.4447 98.4155 79.4594 98.4155 81.9447Z" fill="#9376E5"/>
<path d="M158.221 137.295C158.221 139.78 160.235 141.795 162.721 141.795C165.206 141.795 167.221 139.78 167.221 137.295C167.221 134.81 165.206 132.795 162.721 132.795C160.235 132.795 158.221 134.81 158.221 137.295Z" fill="#9376E5"/>
<path d="M146.744 137.295C146.744 139.78 148.759 141.795 151.244 141.795C153.729 141.795 155.744 139.78 155.744 137.295C155.744 134.81 153.729 132.795 151.244 132.795C148.759 132.795 146.744 134.81 146.744 137.295Z" fill="#9376E5"/>
<path d="M135.044 126.585C135.044 129.07 137.059 131.085 139.544 131.085C142.029 131.085 144.044 129.07 144.044 126.585C144.044 124.1 142.029 122.085 139.544 122.085C137.059 122.085 135.044 124.1 135.044 126.585Z" fill="#9376E5"/>
<path d="M135.044 117.405C135.044 119.89 137.059 121.905 139.544 121.905C142.029 121.905 144.044 119.89 144.044 117.405C144.044 114.92 142.029 112.905 139.544 112.905C137.059 112.905 135.044 114.92 135.044 117.405Z" fill="#9376E5"/>
<path d="M125.459 105.705C125.459 108.19 127.474 110.205 129.959 110.205C132.445 110.205 134.459 108.19 134.459 105.705C134.459 103.22 132.445 101.205 129.959 101.205C127.474 101.205 125.459 103.22 125.459 105.705Z" fill="#9376E5"/>
<path d="M109.081 105.705C109.081 108.19 111.096 110.205 113.581 110.205C116.066 110.205 118.081 108.19 118.081 105.705C118.081 103.22 116.066 101.205 113.581 101.205C111.096 101.205 109.081 103.22 109.081 105.705Z" fill="#9376E5"/>
<path d="M98.4155 116.055C98.4155 118.54 100.43 120.555 102.916 120.555C105.401 120.555 107.416 118.54 107.416 116.055C107.416 113.57 105.401 111.555 102.916 111.555C100.43 111.555 98.4155 113.57 98.4155 116.055Z" fill="#9376E5"/>
<path d="M98.4155 158.895C98.4155 161.381 100.43 163.395 102.916 163.395C105.401 163.395 107.416 161.381 107.416 158.895C107.416 156.41 105.401 154.395 102.916 154.395C100.43 154.395 98.4155 156.41 98.4155 158.895Z" fill="#9376E5"/>
<path d="M107.64 174.42C107.64 176.905 109.654 178.92 112.14 178.92C114.625 178.92 116.64 176.905 116.64 174.42C116.64 171.935 114.625 169.92 112.14 169.92C109.654 169.92 107.64 171.935 107.64 174.42Z" fill="#9376E5"/>
<path d="M156.959 174.42C156.959 176.905 158.974 178.92 161.459 178.92C163.945 178.92 165.959 176.905 165.959 174.42C165.959 171.935 163.945 169.92 161.459 169.92C158.974 169.92 156.959 171.935 156.959 174.42Z" fill="#9376E5"/>
<path d="M54.9448 105.165C54.9448 107.65 56.9595 109.665 59.4448 109.665C61.9301 109.665 63.9448 107.65 63.9448 105.165C63.9448 102.68 61.9301 100.665 59.4448 100.665C56.9595 100.665 54.9448 102.68 54.9448 105.165Z" fill="#9376E5"/>
<path d="M42.7061 105.165C42.7061 107.65 44.7208 109.665 47.2061 109.665C49.6913 109.665 51.7061 107.65 51.7061 105.165C51.7061 102.68 49.6913 100.665 47.2061 100.665C44.7208 100.665 42.7061 102.68 42.7061 105.165Z" fill="#9376E5"/>
<path d="M32.4907 119.295C32.4907 121.78 34.5054 123.795 36.9907 123.795C39.476 123.795 41.4907 121.78 41.4907 119.295C41.4907 116.81 39.476 114.795 36.9907 114.795C34.5054 114.795 32.4907 116.81 32.4907 119.295Z" fill="#9376E5"/>
<path d="M32.4907 124.92C32.4907 127.405 34.5054 129.42 36.9907 129.42C39.476 129.42 41.4907 127.405 41.4907 124.92C41.4907 122.435 39.476 120.42 36.9907 120.42C34.5054 120.42 32.4907 122.435 32.4907 124.92Z" fill="#9376E5"/>
<path d="M23.2646 137.295C23.2646 139.78 25.2794 141.795 27.7646 141.795C30.2499 141.795 32.2646 139.78 32.2646 137.295C32.2646 134.81 30.2499 132.795 27.7646 132.795C25.2794 132.795 23.2646 134.81 23.2646 137.295Z" fill="#9376E5"/>
<path d="M10.9355 137.295C10.9355 139.78 12.9503 141.795 15.4355 141.795C17.9208 141.795 19.9355 139.78 19.9355 137.295C19.9355 134.81 17.9208 132.795 15.4355 132.795C12.9503 132.795 10.9355 134.81 10.9355 137.295Z" fill="#9376E5"/>
<path d="M0 148.77C0 151.256 2.01472 153.27 4.5 153.27C6.98528 153.27 9 151.256 9 148.77C9 146.285 6.98528 144.27 4.5 144.27C2.01472 144.27 0 146.285 0 148.77Z" fill="#9376E5"/>
<path d="M0 161.145C0 163.631 2.01472 165.645 4.5 165.645C6.98528 165.645 9 163.631 9 161.145C9 158.66 6.98528 156.645 4.5 156.645C2.01472 156.645 0 158.66 0 161.145Z" fill="#9376E5"/>
<path d="M12.1948 174.24C12.1948 176.725 14.2095 178.74 16.6948 178.74C19.1801 178.74 21.1948 176.725 21.1948 174.24C21.1948 171.755 19.1801 169.74 16.6948 169.74C14.2095 169.74 12.1948 171.755 12.1948 174.24Z" fill="#9376E5"/>
<path d="M53.5054 174.24C53.5054 176.725 55.5201 178.74 58.0054 178.74C60.4907 178.74 62.5054 176.725 62.5054 174.24C62.5054 171.755 60.4907 169.74 58.0054 169.74C55.5201 169.74 53.5054 171.755 53.5054 174.24Z" fill="#9376E5"/>
<path d="M64.7993 162.09C64.7993 164.575 66.814 166.59 69.2993 166.59C71.7846 166.59 73.7993 164.575 73.7993 162.09C73.7993 159.605 71.7846 157.59 69.2993 157.59C66.814 157.59 64.7993 159.605 64.7993 162.09Z" fill="#9376E5"/>
<path d="M64.7993 117.765C64.7993 120.25 66.814 122.265 69.2993 122.265C71.7846 122.265 73.7993 120.25 73.7993 117.765C73.7993 115.28 71.7846 113.265 69.2993 113.265C66.814 113.265 64.7993 115.28 64.7993 117.765Z" fill="#9376E5"/>
<path d="M158.759 5.03992C158.759 7.5252 160.774 9.53992 163.259 9.53992C165.744 9.53992 167.759 7.5252 167.759 5.03992C167.759 2.55464 165.744 0.539917 163.259 0.539917C160.774 0.539917 158.759 2.55464 158.759 5.03992Z" fill="#9376E5"/>
<path d="M111.151 5.03992C111.151 7.5252 113.166 9.53992 115.651 9.53992C118.136 9.53992 120.151 7.5252 120.151 5.03992C120.151 2.55464 118.136 0.539917 115.651 0.539917C113.166 0.539917 111.151 2.55464 111.151 5.03992Z" fill="#9376E5"/>
<path d="M98.4155 17.46C98.4155 19.9452 100.43 21.96 102.916 21.96C105.401 21.96 107.416 19.9452 107.416 17.46C107.416 14.9747 105.401 12.96 102.916 12.96C100.43 12.96 98.4155 14.9747 98.4155 17.46Z" fill="#9376E5"/>
<path d="M98.4155 59.9847C98.4155 62.47 100.43 64.4847 102.916 64.4847C105.401 64.4847 107.416 62.47 107.416 59.9847C107.416 57.4995 105.401 55.4847 102.916 55.4847C100.43 55.4847 98.4155 57.4995 98.4155 59.9847Z" fill="#9376E5"/>
<path d="M108.945 73.8901C108.945 76.3754 110.96 78.3901 113.445 78.3901C115.93 78.3901 117.945 76.3754 117.945 73.8901C117.945 71.4049 115.93 69.3901 113.445 69.3901C110.96 69.3901 108.945 71.4049 108.945 73.8901Z" fill="#9376E5"/>
<path d="M122.221 73.8901C122.221 76.3754 124.235 78.3901 126.721 78.3901C129.206 78.3901 131.221 76.3754 131.221 73.8901C131.221 71.4049 129.206 69.3901 126.721 69.3901C124.235 69.3901 122.221 71.4049 122.221 73.8901Z" fill="#9376E5"/>
<path d="M133.38 61.6947C133.38 64.18 135.395 66.1947 137.88 66.1947C140.366 66.1947 142.38 64.18 142.38 61.6947C142.38 59.2094 140.366 57.1947 137.88 57.1947C135.395 57.1947 133.38 59.2094 133.38 61.6947Z" fill="#9376E5"/>
<path d="M133.38 52.2449C133.38 54.7302 135.395 56.7449 137.88 56.7449C140.366 56.7449 142.38 54.7302 142.38 52.2449C142.38 49.7596 140.366 47.7449 137.88 47.7449C135.395 47.7449 133.38 49.7596 133.38 52.2449Z" fill="#9376E5"/>
<path d="M143.686 39.96C143.686 42.4452 145.7 44.46 148.186 44.46C150.671 44.46 152.686 42.4452 152.686 39.96C152.686 37.4747 150.671 35.46 148.186 35.46C145.7 35.46 143.686 37.4747 143.686 39.96Z" fill="#9376E5"/>
<path d="M158.041 39.96C158.041 42.4452 160.055 44.46 162.541 44.46C165.026 44.46 167.041 42.4452 167.041 39.96C167.041 37.4747 165.026 35.46 162.541 35.46C160.055 35.46 158.041 37.4747 158.041 39.96Z" fill="#9376E5"/>
<path d="M167.354 26.1451C167.354 28.6304 169.369 30.6451 171.854 30.6451C174.34 30.6451 176.354 28.6304 176.354 26.1451C176.354 23.6599 174.34 21.6451 171.854 21.6451C169.369 21.6451 167.354 23.6599 167.354 26.1451Z" fill="#9376E5"/>
<path d="M167.354 17.6401C167.354 20.1254 169.369 22.1401 171.854 22.1401C174.34 22.1401 176.354 20.1254 176.354 17.6401C176.354 15.1549 174.34 13.1401 171.854 13.1401C169.369 13.1401 167.354 15.1549 167.354 17.6401Z" fill="#9376E5"/>
<path d="M54.9448 5.03992C54.9448 7.5252 56.9595 9.53992 59.4448 9.53992C61.9301 9.53992 63.9448 7.5252 63.9448 5.03992C63.9448 2.55464 61.9301 0.539917 59.4448 0.539917C56.9595 0.539917 54.9448 2.55464 54.9448 5.03992Z" fill="#9376E5"/>
<path d="M9.49414 5.03992C9.49414 7.5252 11.5089 9.53992 13.9941 9.53992C16.4794 9.53992 18.4941 7.5252 18.4941 5.03992C18.4941 2.55464 16.4794 0.539917 13.9941 0.539917C11.5089 0.539917 9.49414 2.55464 9.49414 5.03992Z" fill="#9376E5"/>
<path d="M0 20.835C0 23.3202 2.01472 25.335 4.5 25.335C6.98528 25.335 9 23.3202 9 20.835C9 18.3497 6.98528 16.335 4.5 16.335C2.01472 16.335 0 18.3497 0 20.835Z" fill="#9376E5"/>
<path d="M0 26.6401C0 29.1254 2.01472 31.1401 4.5 31.1401C6.98528 31.1401 9 29.1254 9 26.6401C9 24.1549 6.98528 22.1401 4.5 22.1401C2.01472 22.1401 0 24.1549 0 26.6401Z" fill="#9376E5"/>
<path d="M12.1948 40.1401C12.1948 42.6254 14.2095 44.6401 16.6948 44.6401C19.1801 44.6401 21.1948 42.6254 21.1948 40.1401C21.1948 37.6549 19.1801 35.6401 16.6948 35.6401C14.2095 35.6401 12.1948 37.6549 12.1948 40.1401Z" fill="#9376E5"/>
<path d="M22.5439 40.1401C22.5439 42.6254 24.5587 44.6401 27.0439 44.6401C29.5292 44.6401 31.5439 42.6254 31.5439 40.1401C31.5439 37.6549 29.5292 35.6401 27.0439 35.6401C24.5587 35.6401 22.5439 37.6549 22.5439 40.1401Z" fill="#9376E5"/>
<path d="M32.5347 53.1897C32.5347 55.675 34.5494 57.6897 37.0347 57.6897C39.5199 57.6897 41.5347 55.675 41.5347 53.1897C41.5347 50.7044 39.5199 48.6897 37.0347 48.6897C34.5494 48.6897 32.5347 50.7044 32.5347 53.1897Z" fill="#9376E5"/>
<path d="M32.5347 61.6947C32.5347 64.18 34.5494 66.1947 37.0347 66.1947C39.5199 66.1947 41.5347 64.18 41.5347 61.6947C41.5347 59.2094 39.5199 57.1947 37.0347 57.1947C34.5494 57.1947 32.5347 59.2094 32.5347 61.6947Z" fill="#9376E5"/>
<path d="M43.2441 74.2949C43.2441 76.7802 45.2589 78.7949 47.7441 78.7949C50.2294 78.7949 52.2441 76.7802 52.2441 74.2949C52.2441 71.8096 50.2294 69.7949 47.7441 69.7949C45.2589 69.7949 43.2441 71.8096 43.2441 74.2949Z" fill="#9376E5"/>
<path d="M54.9448 74.2949C54.9448 76.7802 56.9595 78.7949 59.4448 78.7949C61.9301 78.7949 63.9448 76.7802 63.9448 74.2949C63.9448 71.8096 61.9301 69.7949 59.4448 69.7949C56.9595 69.7949 54.9448 71.8096 54.9448 74.2949Z" fill="#9376E5"/>
<path d="M64.9795 54.7201C64.9795 57.2054 66.9942 59.2201 69.4795 59.2201C71.9648 59.2201 73.9795 57.2054 73.9795 54.7201C73.9795 52.2348 71.9648 50.2201 69.4795 50.2201C66.9942 50.2201 64.9795 52.2348 64.9795 54.7201Z" fill="#9376E5"/>
<path d="M64.9795 21.7798C64.9795 24.2651 66.9942 26.2798 69.4795 26.2798C71.9648 26.2798 73.9795 24.2651 73.9795 21.7798C73.9795 19.2945 71.9648 17.2798 69.4795 17.2798C66.9942 17.2798 64.9795 19.2945 64.9795 21.7798Z" fill="#9376E5"/>
<path d="M323.416 5.4447C323.416 7.92998 325.43 9.9447 327.916 9.9447C330.401 9.9447 332.416 7.92998 332.416 5.4447C332.416 2.95942 330.401 0.944702 327.916 0.944702C325.43 0.944702 323.416 2.95942 323.416 5.4447Z" fill="#9376E5"/>
<path d="M208.215 5.4447C208.215 7.92998 210.23 9.9447 212.715 9.9447C215.2 9.9447 217.215 7.92998 217.215 5.4447C217.215 2.95942 215.2 0.944702 212.715 0.944702C210.23 0.944702 208.215 2.95942 208.215 5.4447Z" fill="#9376E5"/>
<path d="M201.104 14.4897C201.104 16.975 203.119 18.9897 205.604 18.9897C208.09 18.9897 210.104 16.975 210.104 14.4897C210.104 12.0045 208.09 9.98975 205.604 9.98975C203.119 9.98975 201.104 12.0045 201.104 14.4897Z" fill="#9376E5"/>
<path d="M209.971 174.78C209.971 177.265 211.985 179.28 214.471 179.28C216.956 179.28 218.971 177.265 218.971 174.78C218.971 172.295 216.956 170.28 214.471 170.28C211.985 170.28 209.971 172.295 209.971 174.78Z" fill="#9376E5"/>
<path d="M225.314 174.78C225.314 177.265 227.329 179.28 229.814 179.28C232.299 179.28 234.314 177.265 234.314 174.78C234.314 172.295 232.299 170.28 229.814 170.28C227.329 170.28 225.314 172.295 225.314 174.78Z" fill="#9376E5"/>
<path d="M233.279 164.97C233.279 167.455 235.294 169.47 237.779 169.47C240.265 169.47 242.279 167.455 242.279 164.97C242.279 162.485 240.265 160.47 237.779 160.47C235.294 160.47 233.279 162.485 233.279 164.97Z" fill="#9376E5"/>
<path d="M200.76 164.97C200.76 167.455 202.774 169.47 205.26 169.47C207.745 169.47 209.76 167.455 209.76 164.97C209.76 162.485 207.745 160.47 205.26 160.47C202.774 160.47 200.76 162.485 200.76 164.97Z" fill="#9376E5"/>
<path d="M233.279 49.8597C233.279 52.345 235.294 54.3597 237.779 54.3597C240.265 54.3597 242.279 52.345 242.279 49.8597C242.279 47.3745 240.265 45.3597 237.779 45.3597C235.294 45.3597 233.279 47.3745 233.279 49.8597Z" fill="#9376E5"/>
<path d="M241.244 40.5449C241.244 43.0302 243.259 45.0449 245.744 45.0449C248.229 45.0449 250.244 43.0302 250.244 40.5449C250.244 38.0596 248.229 36.0449 245.744 36.0449C243.259 36.0449 241.244 38.0596 241.244 40.5449Z" fill="#9376E5"/>
<path d="M323.776 40.5449C323.776 43.0302 325.791 45.0449 328.276 45.0449C330.761 45.0449 332.776 43.0302 332.776 40.5449C332.776 38.0596 330.761 36.0449 328.276 36.0449C325.791 36.0449 323.776 38.0596 323.776 40.5449Z" fill="#9376E5"/>
<path d="M370.035 88.8298C370.035 91.3151 372.049 93.3298 374.535 93.3298C377.02 93.3298 379.035 91.3151 379.035 88.8298C379.035 86.3446 377.02 84.3298 374.535 84.3298C372.049 84.3298 370.035 86.3446 370.035 88.8298Z" fill="#9376E5"/>
<path d="M370.035 89.1897C370.035 91.675 372.049 93.6897 374.535 93.6897C377.02 93.6897 379.035 91.675 379.035 89.1897C379.035 86.7044 377.02 84.6897 374.535 84.6897C372.049 84.6897 370.035 86.7044 370.035 89.1897Z" fill="#9376E5"/>
<path d="M325.575 140.355C325.575 142.84 327.59 144.855 330.075 144.855C332.56 144.855 334.575 142.84 334.575 140.355C334.575 137.869 332.56 135.855 330.075 135.855C327.59 135.855 325.575 137.869 325.575 140.355Z" fill="#9376E5"/>
<path d="M276.029 140.355C276.029 142.84 278.044 144.855 280.529 144.855C283.015 144.855 285.029 142.84 285.029 140.355C285.029 137.869 283.015 135.855 280.529 135.855C278.044 135.855 276.029 137.869 276.029 140.355Z" fill="#9376E5"/>
<path d="M267.57 164.385C267.57 166.871 269.585 168.885 272.07 168.885C274.555 168.885 276.57 166.871 276.57 164.385C276.57 161.9 274.555 159.885 272.07 159.885C269.585 159.885 267.57 161.9 267.57 164.385Z" fill="#9376E5"/>
<path d="M275.669 174.78C275.669 177.265 277.684 179.28 280.169 179.28C282.654 179.28 284.669 177.265 284.669 174.78C284.669 172.295 282.654 170.28 280.169 170.28C277.684 170.28 275.669 172.295 275.669 174.78Z" fill="#9376E5"/>
<path d="M323.596 174.78C323.596 177.265 325.61 179.28 328.096 179.28C330.581 179.28 332.596 177.265 332.596 174.78C332.596 172.295 330.581 170.28 328.096 170.28C325.61 170.28 323.596 172.295 323.596 174.78Z" fill="#9376E5"/>
<path d="M400.186 89.1897C400.186 91.675 402.2 93.6897 404.686 93.6897C407.171 93.6897 409.186 91.675 409.186 89.1897C409.186 86.7044 407.171 84.6897 404.686 84.6897C402.2 84.6897 400.186 86.7044 400.186 89.1897Z" fill="#9376E5"/>
<path d="M400.186 88.2449C400.186 90.7302 402.2 92.7449 404.686 92.7449C407.171 92.7449 409.186 90.7302 409.186 88.2449C409.186 85.7596 407.171 83.7449 404.686 83.7449C402.2 83.7449 400.186 85.7596 400.186 88.2449Z" fill="#9376E5"/>
<path d="M613.259 89.7296C613.259 92.2149 615.274 94.2296 617.759 94.2296C620.244 94.2296 622.259 92.2149 622.259 89.7296C622.259 87.2443 620.244 85.2296 617.759 85.2296C615.274 85.2296 613.259 87.2443 613.259 89.7296Z" fill="#9376E5"/>
<path d="M570.195 140.76C570.195 143.245 572.21 145.26 574.695 145.26C577.18 145.26 579.195 143.245 579.195 140.76C579.195 138.275 577.18 136.26 574.695 136.26C572.21 136.26 570.195 138.275 570.195 140.76Z" fill="#9376E5"/>
<path d="M514.89 140.76C514.89 143.245 516.904 145.26 519.39 145.26C521.875 145.26 523.89 143.245 523.89 140.76C523.89 138.275 521.875 136.26 519.39 136.26C516.904 136.26 514.89 138.275 514.89 140.76Z" fill="#9376E5"/>
<path d="M468.991 89.01C468.991 91.4953 471.005 93.51 473.491 93.51C475.976 93.51 477.991 91.4953 477.991 89.01C477.991 86.5247 475.976 84.51 473.491 84.51C471.005 84.51 468.991 86.5247 468.991 89.01Z" fill="#9376E5"/>
<path d="M468.991 88.2449C468.991 90.7302 471.005 92.7449 473.491 92.7449C475.976 92.7449 477.991 90.7302 477.991 88.2449C477.991 85.7596 475.976 83.7449 473.491 83.7449C471.005 83.7449 468.991 85.7596 468.991 88.2449Z" fill="#9376E5"/>
<path d="M513.404 38.2949C513.404 40.7802 515.419 42.7949 517.904 42.7949C520.39 42.7949 522.404 40.7802 522.404 38.2949C522.404 35.8096 520.39 33.7949 517.904 33.7949C515.419 33.7949 513.404 35.8096 513.404 38.2949Z" fill="#9376E5"/>
<path d="M568.709 38.2949C568.709 40.7802 570.724 42.7949 573.209 42.7949C575.695 42.7949 577.71 40.7802 577.71 38.2949C577.71 35.8096 575.695 33.7949 573.209 33.7949C570.724 33.7949 568.709 35.8096 568.709 38.2949Z" fill="#9376E5"/>
<path d="M613.259 89.01C613.259 91.4953 615.274 93.51 617.759 93.51C620.244 93.51 622.259 91.4953 622.259 89.01C622.259 86.5247 620.244 84.51 617.759 84.51C615.274 84.51 613.259 86.5247 613.259 89.01Z" fill="#9376E5"/>
<path d="M570.869 5.4447C570.869 7.92998 572.884 9.9447 575.369 9.9447C577.854 9.9447 579.869 7.92998 579.869 5.4447C579.869 2.95942 577.854 0.944702 575.369 0.944702C572.884 0.944702 570.869 2.95942 570.869 5.4447Z" fill="#9376E5"/>
<path d="M512.235 5.4447C512.235 7.92998 514.25 9.9447 516.735 9.9447C519.221 9.9447 521.235 7.92998 521.235 5.4447C521.235 2.95942 519.221 0.944702 516.735 0.944702C514.25 0.944702 512.235 2.95942 512.235 5.4447Z" fill="#9376E5"/>
<path d="M433.936 89.01C433.936 91.4953 435.95 93.51 438.436 93.51C440.921 93.51 442.936 91.4953 442.936 89.01C442.936 86.5247 440.921 84.51 438.436 84.51C435.95 84.51 433.936 86.5247 433.936 89.01Z" fill="#9376E5"/>
<path d="M433.936 89.7296C433.936 92.2149 435.95 94.2296 438.436 94.2296C440.921 94.2296 442.936 92.2149 442.936 89.7296C442.936 87.2443 440.921 85.2296 438.436 85.2296C435.95 85.2296 433.936 87.2443 433.936 89.7296Z" fill="#9376E5"/>
<path d="M512.235 174.78C512.235 177.265 514.25 179.28 516.735 179.28C519.221 179.28 521.235 177.265 521.235 174.78C521.235 172.295 519.221 170.28 516.735 170.28C514.25 170.28 512.235 172.295 512.235 174.78Z" fill="#9376E5"/>
<path d="M570.869 174.78C570.869 177.265 572.884 179.28 575.369 179.28C577.854 179.28 579.869 177.265 579.869 174.78C579.869 172.295 577.854 170.28 575.369 170.28C572.884 170.28 570.869 172.295 570.869 174.78Z" fill="#9376E5"/>
<path d="M645.974 89.7296C645.974 92.2149 647.989 94.2296 650.474 94.2296C652.959 94.2296 654.974 92.2149 654.974 89.7296C654.974 87.2443 652.959 85.2296 650.474 85.2296C647.989 85.2296 645.974 87.2443 645.974 89.7296Z" fill="#9376E5"/>
<path d="M645.974 89.01C645.974 91.4953 647.989 93.51 650.474 93.51C652.959 93.51 654.974 91.4953 654.974 89.01C654.974 86.5247 652.959 84.51 650.474 84.51C647.989 84.51 645.974 86.5247 645.974 89.01Z" fill="#9376E5"/>
<path d="M804.555 72.4498C804.555 74.9351 806.57 76.9498 809.055 76.9498C811.54 76.9498 813.555 74.9351 813.555 72.4498C813.555 69.9645 811.54 67.9498 809.055 67.9498C806.57 67.9498 804.555 69.9645 804.555 72.4498Z" fill="#9376E5"/>
<path d="M755.729 72.63C755.729 75.1153 757.744 77.13 760.229 77.13C762.715 77.13 764.729 75.1153 764.729 72.63C764.729 70.1447 762.715 68.13 760.229 68.13C757.744 68.13 755.729 70.1447 755.729 72.63Z" fill="#9376E5"/>
<path d="M747.134 81.4949C747.134 83.9802 749.149 85.9949 751.634 85.9949C754.119 85.9949 756.134 83.9802 756.134 81.4949C756.134 79.0096 754.119 76.9949 751.634 76.9949C749.149 76.9949 747.134 79.0096 747.134 81.4949Z" fill="#9376E5"/>
<path d="M747.134 98.01C747.134 100.495 749.149 102.51 751.634 102.51C754.119 102.51 756.134 100.495 756.134 98.01C756.134 95.5247 754.119 93.51 751.634 93.51C749.149 93.51 747.134 95.5247 747.134 98.01Z" fill="#9376E5"/>
<path d="M755.505 107.91C755.505 110.395 757.52 112.41 760.005 112.41C762.491 112.41 764.505 110.395 764.505 107.91C764.505 105.425 762.491 103.41 760.005 103.41C757.52 103.41 755.505 105.425 755.505 107.91Z" fill="#9376E5"/>
<path d="M802.709 107.91C802.709 110.395 804.724 112.41 807.209 112.41C809.695 112.41 811.709 110.395 811.709 107.91C811.709 105.425 809.695 103.41 807.209 103.41C804.724 103.41 802.709 105.425 802.709 107.91Z" fill="#9376E5"/>
<path d="M811.305 98.8647C811.305 101.35 813.32 103.365 815.805 103.365C818.29 103.365 820.305 101.35 820.305 98.8647C820.305 96.3795 818.29 94.3647 815.805 94.3647C813.32 94.3647 811.305 96.3795 811.305 98.8647Z" fill="#9376E5"/>
<path d="M811.305 81.4048C811.305 83.8901 813.32 85.9048 815.805 85.9048C818.29 85.9048 820.305 83.8901 820.305 81.4048C820.305 78.9195 818.29 76.9048 815.805 76.9048C813.32 76.9048 811.305 78.9195 811.305 81.4048Z" fill="#9376E5"/>
<path d="M838.485 4.49988C838.485 6.98516 840.5 8.99988 842.985 8.99988C845.471 8.99988 847.485 6.98516 847.485 4.49988C847.485 2.0146 845.471 -0.00012207 842.985 -0.00012207C840.5 -0.00012207 838.485 2.0146 838.485 4.49988Z" fill="#9376E5"/>
<path d="M688.005 4.49988C688.005 6.98516 690.02 8.99988 692.505 8.99988C694.991 8.99988 697.005 6.98516 697.005 4.49988C697.005 2.0146 694.991 -0.00012207 692.505 -0.00012207C690.02 -0.00012207 688.005 2.0146 688.005 4.49988Z" fill="#9376E5"/>
<path d="M680.041 13.9949C680.041 16.4802 682.055 18.4949 684.541 18.4949C687.026 18.4949 689.041 16.4802 689.041 13.9949C689.041 11.5096 687.026 9.49487 684.541 9.49487C682.055 9.49487 680.041 11.5096 680.041 13.9949Z" fill="#9376E5"/>
<path d="M680.041 165.33C680.041 167.815 682.055 169.83 684.541 169.83C687.026 169.83 689.041 167.815 689.041 165.33C689.041 162.845 687.026 160.83 684.541 160.83C682.055 160.83 680.041 162.845 680.041 165.33Z" fill="#9376E5"/>
<path d="M687.285 174.78C687.285 177.265 689.299 179.28 691.785 179.28C694.27 179.28 696.285 177.265 696.285 174.78C696.285 172.295 694.27 170.28 691.785 170.28C689.299 170.28 687.285 172.295 687.285 174.78Z" fill="#9376E5"/>
<path d="M706.186 174.78C706.186 177.265 708.2 179.28 710.686 179.28C713.171 179.28 715.186 177.265 715.186 174.78C715.186 172.295 713.171 170.28 710.686 170.28C708.2 170.28 706.186 172.295 706.186 174.78Z" fill="#9376E5"/>
<path d="M713.07 165.69C713.07 168.175 715.085 170.19 717.57 170.19C720.055 170.19 722.07 168.175 722.07 165.69C722.07 163.204 720.055 161.19 717.57 161.19C715.085 161.19 713.07 163.204 713.07 165.69Z" fill="#9376E5"/>
<path d="M713.07 48.6897C713.07 51.175 715.085 53.1897 717.57 53.1897C720.055 53.1897 722.07 51.175 722.07 48.6897C722.07 46.2044 720.055 44.1897 717.57 44.1897C715.085 44.1897 713.07 46.2044 713.07 48.6897Z" fill="#9376E5"/>
<path d="M720.224 39.7798C720.224 42.2651 722.239 44.2798 724.724 44.2798C727.209 44.2798 729.224 42.2651 729.224 39.7798C729.224 37.2945 727.209 35.2798 724.724 35.2798C722.239 35.2798 720.224 37.2945 720.224 39.7798Z" fill="#9376E5"/>
<path d="M837.991 39.7798C837.991 42.2651 840.005 44.2798 842.491 44.2798C844.976 44.2798 846.991 42.2651 846.991 39.7798C846.991 37.2945 844.976 35.2798 842.491 35.2798C840.005 35.2798 837.991 37.2945 837.991 39.7798Z" fill="#9376E5"/>
<path d="M845.279 29.6097C845.279 32.095 847.294 34.1097 849.779 34.1097C852.265 34.1097 854.279 32.095 854.279 29.6097C854.279 27.1245 852.265 25.1097 849.779 25.1097C847.294 25.1097 845.279 27.1245 845.279 29.6097Z" fill="#9376E5"/>
<path d="M845.279 14.3997C845.279 16.8849 847.294 18.8997 849.779 18.8997C852.265 18.8997 854.279 16.8849 854.279 14.3997C854.279 11.9144 852.265 9.89966 849.779 9.89966C847.294 9.89966 845.279 11.9144 845.279 14.3997Z" fill="#9376E5"/>
</g>
<defs>
<clipPath id="clip0_546_708">
<rect width="854.28" height="179.55" fill="white"/>
</clipPath>
</defs>
</svg>
